<?xml version="1.0" encoding="UTF-8" standalone="no"?>
<svg
   xmlns:dc="http://purl.org/dc/elements/1.1/"
   xmlns:cc="http://creativecommons.org/ns#"
   xmlns:rdf="http://www.w3.org/1999/02/22-rdf-syntax-ns#"
   xmlns:svg="http://www.w3.org/2000/svg"
   xmlns="http://www.w3.org/2000/svg"
   xmlns:sodipodi="http://sodipodi.sourceforge.net/DTD/sodipodi-0.dtd"
   xmlns:inkscape="http://www.inkscape.org/namespaces/inkscape"
   inkscape:version="1.0 (4035a4fb49, 2020-05-01)"
   sodipodi:docname="logo.svg"
   id="svg26"
   xml:space="preserve"
   enable-background="new 0 0 100 100"
   viewBox="0 0 100 100"
   y="0px"
   x="0px"
   version="1.1"
   fill="#000000"
   width="300px"
   height="300px"><metadata
     id="metadata32"><rdf:RDF><cc:Work
         rdf:about=""><dc:format>image/svg+xml</dc:format><dc:type
           rdf:resource="http://purl.org/dc/dcmitype/StillImage" /><dc:title></dc:title></cc:Work></rdf:RDF></metadata><defs
     id="defs30" /><sodipodi:namedview
     inkscape:current-layer="svg26"
     inkscape:window-maximized="1"
     inkscape:window-y="-8"
     inkscape:window-x="-8"
     inkscape:cy="99.589003"
     inkscape:cx="-118.21667"
     inkscape:zoom="1.1879394"
     showgrid="false"
     id="namedview28"
     inkscape:window-height="1377"
     inkscape:window-width="3440"
     inkscape:pageshadow="2"
     inkscape:pageopacity="0"
     guidetolerance="10"
     gridtolerance="10"
     objecttolerance="10"
     borderopacity="1"
     bordercolor="#666666"
     pagecolor="#2c2f33" /><polygon
     style="fill:#ffb403;fill-opacity:1"
     id="polygon22"
     points="8.68,91.987 8.68,88.2 16.253,88.2 16.253,82.52 8.68,82.52 8.68,69.267 16.253,69.267 16.253,63.587 8.68,63.587   8.68,50.333 16.253,50.333 16.253,44.653 8.68,44.653 8.68,31.4 16.253,31.4 16.253,25.72 8.68,25.72 8.68,12.467 16.253,12.467   16.253,6.787 8.68,6.787 8.68,3 3,3 3,97.667 97.667,97.667 97.667,91.987 " /><polygon
     style="fill:#ffb403;fill-opacity:1"
     id="polygon24"
     points="35.27,53.384 51.943,73.595 63.472,34.624 75.176,53.604 96.543,8.62 91.123,6.046 74.491,41.062 61.528,20.042   49.39,61.072 33.064,41.283 17.661,86.364 23.339,88.303 " /><g
     style="fill:#37abc8"
     transform="matrix(0.06761969,0,0,0.06761969,23.245311,13.852532)"
     id="g873"><path
       style="fill:#37abc8"
       d="M 978.9,928.8 700.9,648.2 C 758,580.2 792.5,492.6 792.5,396.9 792.5,180.8 617.3,5.7 401.2,5.7 185.2,5.7 10,180.8 10,396.9 10,613 185.2,788.2 401.2,788.2 c 92.7,0 177.7,-32.4 244.7,-86.2 l 278.3,281 c 7.5,7.6 17.4,11.4 27.3,11.4 9.8,0 19.6,-3.7 27,-11.1 15.2,-15 15.3,-39.4 0.4,-54.5 z M 86.9,396.9 c 0,-173.4 141,-314.4 314.3,-314.4 173.3,0 314.4,141 314.4,314.4 0,173.4 -141,314.4 -314.4,314.4 C 227.8,711.3 86.9,570.2 86.9,396.9 Z"
       id="path871" /></g></svg>
